<svg width="22" height="23" viewBox="0 0 22 23" fill="none" xmlns="http://www.w3.org/2000/svg">
    <path
        d="M3.11899 21.868C2.83194 21.9635 2.52867 22.0005 2.22709 21.9769C1.63798 21.9308 1.09018 21.6564 0.700465 21.2122C0.310755 20.768 0.109961 20.1892 0.140887 19.5991C0.171813 19.0089 0.432013 18.4543 0.866019 18.0532C1.30003 17.6522 1.87351 17.4366 2.46421 17.4523C2.76661 17.4603 3.06435 17.5288 3.33985 17.6538C3.61536 17.7787 3.86306 17.9575 4.06836 18.1797C4.27365 18.4019 4.43239 18.663 4.5352 18.9475C4.63802 19.232 4.68283 19.5342 4.667 19.8363C4.65116 20.1383 4.57501 20.4342 4.44302 20.7064C4.31103 20.9786 4.12588 21.2216 3.89848 21.4211C3.67109 21.6206 3.40605 21.7726 3.11899 21.868Z"
        fill="black" />
    <path
        d="M20.2794 22.772C20.4105 22.8333 20.5526 22.8675 20.6972 22.8726C21.3189 22.9052 21.8183 22.4555 21.8508 21.8353C22.4476 10.448 13.6653 0.656137 2.24195 0.0574624C1.62175 0.024959 1.12085 0.474547 1.08842 1.09325C1.07798 1.23784 1.09684 1.38306 1.14388 1.52018C1.19092 1.65731 1.26517 1.78353 1.36218 1.89126C1.45918 1.999 1.57695 2.08603 1.70841 2.14715C1.83987 2.20827 1.98231 2.24221 2.12721 2.24693C12.3462 2.78249 20.195 11.5376 19.6614 21.7191C19.651 21.8634 19.6698 22.0084 19.7167 22.1453C19.7635 22.2822 19.8375 22.4083 19.9342 22.5159C20.0309 22.6236 20.1483 22.7107 20.2794 22.772Z"
        fill="black" />
    <path
        d="M12.6498 22.4087C12.7811 22.4699 12.9234 22.504 13.0682 22.5089L13.0681 22.5104C13.6522 22.541 14.1896 22.0572 14.2203 21.4715C14.597 14.2829 9.06637 8.1008 1.84021 7.72209C1.22001 7.68959 0.719106 8.13918 0.686603 8.75938C0.67658 8.90375 0.695763 9.04865 0.743006 9.18544C0.790248 9.32222 0.86458 9.44808 0.96156 9.55549C1.05854 9.6629 1.17618 9.74966 1.30744 9.81058C1.43871 9.8715 1.58091 9.90534 1.72555 9.91007C7.7113 10.2238 12.3445 15.371 12.0309 21.3553C12.0204 21.4998 12.0393 21.6448 12.0862 21.7819C12.1332 21.9189 12.2073 22.045 12.3041 22.1527C12.401 22.2604 12.5186 22.3475 12.6498 22.4087Z"
        fill="black" />
</svg>
